<svg width="39" height="52" viewBox="0 0 39 52" fill="none" xmlns="http://www.w3.org/2000/svg">
<g filter="url(#filter0_dd_1614_35)">
<path d="M23.7188 33.4688C23.8854 32.4688 23.6354 31.6979 22.9688 31.1562C22.3021 30.5938 21.4792 30.1667 20.5 29.875C19.5417 29.5833 18.7083 29.3542 18 29.1875C16.75 28.8542 15.4896 28.4375 14.2188 27.9375C12.9688 27.4167 11.8333 26.7708 10.8125 26C9.79167 25.2292 8.97917 24.2917 8.375 23.1875C7.77083 22.0625 7.5 20.7396 7.5625 19.2188C7.625 17.4062 8.08333 15.8333 8.9375 14.5C9.8125 13.1458 10.9375 12.0312 12.3125 11.1562C13.6875 10.2604 15.1875 9.59375 16.8125 9.15625C18.4375 8.71875 20.0521 8.52083 21.6562 8.5625C23.9062 8.58333 25.9896 9 27.9062 9.8125C29.8438 10.625 31.4062 11.8333 32.5938 13.4375C33.8021 15.0417 34.4062 17.0417 34.4062 19.4375L25.6875 19.4062C25.7083 18.4896 25.5625 17.6875 25.25 17C24.9375 16.3125 24.4583 15.7812 23.8125 15.4062C23.1667 15.0312 22.3438 14.8438 21.3438 14.8438C20.5521 14.8438 19.7604 15 18.9688 15.3125C18.1979 15.6042 17.5312 16.0417 16.9688 16.625C16.4062 17.2083 16.0521 17.9271 15.9062 18.7812C15.7812 19.4896 15.8854 20.0729 16.2188 20.5312C16.5521 20.9896 17 21.3646 17.5625 21.6562C18.125 21.9271 18.7188 22.1562 19.3438 22.3438C19.9688 22.5104 20.5312 22.6458 21.0312 22.75C22.8646 23.2292 24.6562 23.8438 26.4062 24.5938C28.1562 25.3438 29.5833 26.3958 30.6875 27.75C31.7917 29.0833 32.3021 30.8646 32.2188 33.0938C32.1562 34.9896 31.6562 36.6146 30.7188 37.9688C29.7812 39.3021 28.5729 40.3958 27.0938 41.25C25.6354 42.0833 24.0521 42.6875 22.3438 43.0625C20.6562 43.4583 19 43.6458 17.375 43.625C15.1042 43.5833 12.9688 43.125 10.9688 42.25C8.98958 41.375 7.38542 40.1042 6.15625 38.4375C4.92708 36.75 4.30208 34.6875 4.28125 32.25L12.5312 32.2812C12.5521 33.3646 12.7708 34.2812 13.1875 35.0312C13.6042 35.7812 14.1979 36.3542 14.9688 36.75C15.7604 37.125 16.6979 37.3125 17.7812 37.3125C18.6354 37.3333 19.4792 37.2188 20.3125 36.9688C21.1667 36.7188 21.9062 36.3125 22.5312 35.75C23.1562 35.1667 23.5521 34.4062 23.7188 33.4688Z" fill="white"/>
</g>
<defs>
<filter id="filter0_dd_1614_35" x="0.28125" y="0.5" width="38.125" height="51.1562" filterUnits="userSpaceOnUse" color-interpolation-filters="sRGB">
<feFlood flood-opacity="0" result="BackgroundImageFix"/>
<feColorMatrix in="SourceAlpha" type="matrix" values="0 0 0 0 0 0 0 0 0 0 0 0 0 0 0 0 0 0 127 0" result="hardAlpha"/>
<feOffset dy="4"/>
<feGaussianBlur stdDeviation="2"/>
<feComposite in2="hardAlpha" operator="out"/>
<feColorMatrix type="matrix" values="0 0 0 0 0 0 0 0 0 0 0 0 0 0 0 0 0 0 0.25 0"/>
<feBlend mode="normal" in2="effect1_dropShadow_1614_35" result="effect2_dropShadow_1614_35"/>
<feBlend mode="normal" in="SourceGraphic" in2="effect2_dropShadow_1614_35" result="shape"/>
</filter>
</defs>
</svg>
