<svg width="163" height="52" viewBox="0 0 163 52" fill="none" xmlns="http://www.w3.org/2000/svg">
	<g filter="url(#filter0_dd_1612_35)">
		<path
			d="M23.7188 33.4688C23.8854 32.4688 23.6354 31.6979 22.9688 31.1562C22.3021 30.5938 21.4792 30.1667 20.5 29.875C19.5417 29.5833 18.7083 29.3542 18 29.1875C16.75 28.8542 15.4896 28.4375 14.2188 27.9375C12.9688 27.4167 11.8333 26.7708 10.8125 26C9.79167 25.2292 8.97917 24.2917 8.375 23.1875C7.77083 22.0625 7.5 20.7396 7.5625 19.2188C7.625 17.4062 8.08333 15.8333 8.9375 14.5C9.8125 13.1458 10.9375 12.0312 12.3125 11.1562C13.6875 10.2604 15.1875 9.59375 16.8125 9.15625C18.4375 8.71875 20.0521 8.52083 21.6562 8.5625C23.9062 8.58333 25.9896 9 27.9062 9.8125C29.8438 10.625 31.4062 11.8333 32.5938 13.4375C33.8021 15.0417 34.4062 17.0417 34.4062 19.4375L25.6875 19.4062C25.7083 18.4896 25.5625 17.6875 25.25 17C24.9375 16.3125 24.4583 15.7812 23.8125 15.4062C23.1667 15.0312 22.3438 14.8438 21.3438 14.8438C20.5521 14.8438 19.7604 15 18.9688 15.3125C18.1979 15.6042 17.5312 16.0417 16.9688 16.625C16.4062 17.2083 16.0521 17.9271 15.9062 18.7812C15.7812 19.4896 15.8854 20.0729 16.2188 20.5312C16.5521 20.9896 17 21.3646 17.5625 21.6562C18.125 21.9271 18.7188 22.1562 19.3438 22.3438C19.9688 22.5104 20.5312 22.6458 21.0312 22.75C22.8646 23.2292 24.6562 23.8438 26.4062 24.5938C28.1562 25.3438 29.5833 26.3958 30.6875 27.75C31.7917 29.0833 32.3021 30.8646 32.2188 33.0938C32.1562 34.9896 31.6562 36.6146 30.7188 37.9688C29.7812 39.3021 28.5729 40.3958 27.0938 41.25C25.6354 42.0833 24.0521 42.6875 22.3438 43.0625C20.6562 43.4583 19 43.6458 17.375 43.625C15.1042 43.5833 12.9688 43.125 10.9688 42.25C8.98958 41.375 7.38542 40.1042 6.15625 38.4375C4.92708 36.75 4.30208 34.6875 4.28125 32.25L12.5312 32.2812C12.5521 33.3646 12.7708 34.2812 13.1875 35.0312C13.6042 35.7812 14.1979 36.3542 14.9688 36.75C15.7604 37.125 16.6979 37.3125 17.7812 37.3125C18.6354 37.3333 19.4792 37.2188 20.3125 36.9688C21.1667 36.7188 21.9062 36.3125 22.5312 35.75C23.1562 35.1667 23.5521 34.4062 23.7188 33.4688ZM46.2337 26.625L46.3275 25.9688C46.5775 23.5729 47.1504 21.3229 48.0462 19.2188C48.9629 17.0938 50.1712 15.2292 51.6712 13.625C53.1921 12 54.9733 10.7396 57.015 9.84375C59.0775 8.92708 61.39 8.5 63.9525 8.5625C66.39 8.60417 68.4942 9.09375 70.265 10.0312C72.0358 10.9688 73.4837 12.2292 74.6087 13.8125C75.7546 15.3958 76.5567 17.2083 77.015 19.25C77.4942 21.2917 77.6296 23.4479 77.4212 25.7188L77.3587 26.4062C77.0879 28.7812 76.4837 31.0208 75.5462 33.125C74.6296 35.2083 73.4108 37.0521 71.89 38.6562C70.39 40.2396 68.6087 41.4792 66.5462 42.375C64.4837 43.2708 62.1921 43.6875 59.6712 43.625C57.2754 43.5833 55.1817 43.1042 53.39 42.1875C51.5983 41.25 50.14 40 49.015 38.4375C47.89 36.8542 47.0983 35.0521 46.64 33.0312C46.1817 31.0104 46.0462 28.875 46.2337 26.625ZM55.1087 25.9688L55.0462 26.6562C54.9421 27.6562 54.9108 28.7292 54.9525 29.875C54.9942 31 55.1712 32.0729 55.4837 33.0938C55.8171 34.1146 56.3587 34.9479 57.1087 35.5938C57.8587 36.2396 58.89 36.5833 60.2025 36.625C61.5983 36.6667 62.7962 36.3854 63.7962 35.7812C64.7962 35.1771 65.6192 34.3646 66.265 33.3438C66.9108 32.3021 67.4212 31.1771 67.7962 29.9688C68.1712 28.7396 68.4212 27.5417 68.5462 26.375L68.6087 25.7188C68.6921 24.7188 68.7129 23.6458 68.6712 22.5C68.6504 21.3333 68.4733 20.2396 68.14 19.2188C67.8067 18.1771 67.265 17.3229 66.515 16.6562C65.765 15.9896 64.7337 15.6354 63.4212 15.5938C62.0254 15.5312 60.8275 15.8229 59.8275 16.4688C58.8275 17.0938 58.0046 17.9271 57.3587 18.9688C56.7129 20.0104 56.2025 21.1458 55.8275 22.375C55.4733 23.6042 55.2337 24.8021 55.1087 25.9688ZM100.436 36.0625L111.842 9.1875H121.28L104.905 43H99.1862L100.436 36.0625ZM99.5925 9.1875L102.686 36.9062L101.874 43H96.4362L90.6237 9.1875H99.5925ZM146.607 35.375L148.982 20.2188C149.087 19.3021 149.045 18.4479 148.857 17.6562C148.67 16.8646 148.285 16.2396 147.701 15.7812C147.139 15.3021 146.337 15.0417 145.295 15C144.357 14.9792 143.514 15.1458 142.764 15.5C142.035 15.8333 141.43 16.3229 140.951 16.9688C140.472 17.5938 140.139 18.3438 139.951 19.2188L131.139 19.2812C131.243 17.4062 131.764 15.7917 132.701 14.4375C133.66 13.0625 134.868 11.9375 136.326 11.0625C137.785 10.1875 139.368 9.54167 141.076 9.125C142.805 8.70833 144.493 8.52083 146.139 8.5625C148.493 8.60417 150.587 9.09375 152.42 10.0312C154.274 10.9688 155.691 12.3125 156.67 14.0625C157.67 15.7917 158.045 17.8958 157.795 20.375L155.451 34.875C155.264 36.0833 155.118 37.3542 155.014 38.6875C154.91 40 155.097 41.25 155.576 42.4375L155.514 43L146.889 43.0312C146.493 41.8021 146.295 40.5417 146.295 39.25C146.316 37.9375 146.42 36.6458 146.607 35.375ZM149.982 22.4062L149.139 27.5L144.67 27.4688C143.774 27.4896 142.878 27.6146 141.982 27.8438C141.107 28.0521 140.295 28.3854 139.545 28.8438C138.795 29.2812 138.17 29.8542 137.67 30.5625C137.191 31.2708 136.889 32.1354 136.764 33.1562C136.66 33.8854 136.732 34.5417 136.982 35.125C137.232 35.6875 137.618 36.1354 138.139 36.4688C138.68 36.8021 139.326 36.9792 140.076 37C141.139 37.0208 142.18 36.8229 143.201 36.4062C144.222 35.9688 145.107 35.3542 145.857 34.5625C146.607 33.7708 147.128 32.8542 147.42 31.8125L149.295 35.7188C148.795 36.8854 148.16 37.9583 147.389 38.9375C146.639 39.9167 145.774 40.7708 144.795 41.5C143.816 42.2083 142.743 42.75 141.576 43.125C140.41 43.5208 139.16 43.7083 137.826 43.6875C135.972 43.6458 134.264 43.2083 132.701 42.375C131.16 41.5208 129.93 40.3646 129.014 38.9062C128.118 37.4271 127.712 35.7083 127.795 33.75C127.878 31.5417 128.43 29.7083 129.451 28.25C130.472 26.7708 131.785 25.6042 133.389 24.75C135.014 23.8958 136.774 23.2917 138.67 22.9375C140.587 22.5625 142.482 22.375 144.357 22.375L149.982 22.4062Z"
			fill="white" />
	</g>
	<defs>
		<filter id="filter0_dd_1612_35" x="0.28125" y="0.46875" width="161.889" height="51.25"
			filterUnits="userSpaceOnUse" color-interpolation-filters="sRGB">
			<feFlood flood-opacity="0" result="BackgroundImageFix" />
			<feColorMatrix in="SourceAlpha" type="matrix"
				values="0 0 0 0 0 0 0 0 0 0 0 0 0 0 0 0 0 0 127 0" result="hardAlpha" />
			<feOffset dy="4" />
			<feGaussianBlur stdDeviation="2" />
			<feComposite in2="hardAlpha" operator="out" />
			<feColorMatrix type="matrix" values="0 0 0 0 0 0 0 0 0 0 0 0 0 0 0 0 0 0 0.25 0" />
			<feBlend mode="normal" in2="effect1_dropShadow_1612_35"
				result="effect2_dropShadow_1612_35" />
			<feBlend mode="normal" in="SourceGraphic" in2="effect2_dropShadow_1612_35"
				result="shape" />
		</filter>
	</defs>
</svg>